<svg width="24" height="25" viewBox="0 0 24 25" fill="none" xmlns="http://www.w3.org/2000/svg">
<path fill-rule="evenodd" clip-rule="evenodd" d="M13.5 4.25C13.5 3.62868 14.0037 3.125 14.625 3.125H20.25C20.8713 3.125 21.375 3.62868 21.375 4.25V9.875C21.375 10.4963 20.8713 11 20.25 11C19.6287 11 19.125 10.4963 19.125 9.875V5.375H14.625C14.0037 5.375 13.5 4.87132 13.5 4.25Z" fill="#9FA5A9"/>
<path fill-rule="evenodd" clip-rule="evenodd" d="M21.0455 3.4545C21.4848 3.89384 21.4848 4.60616 21.0455 5.0455L14.2955 11.7955C13.8562 12.2348 13.1438 12.2348 12.7045 11.7955C12.2652 11.3562 12.2652 10.6438 12.7045 10.2045L19.4545 3.4545C19.8938 3.01517 20.6062 3.01517 21.0455 3.4545Z" fill="#9FA5A9"/>
<path fill-rule="evenodd" clip-rule="evenodd" d="M4.875 8.375H10.5C11.1213 8.375 11.625 7.87132 11.625 7.25C11.625 6.62868 11.1213 6.125 10.5 6.125H4.5C4.00272 6.125 3.52581 6.32254 3.17417 6.67417C2.82254 7.02581 2.625 7.50272 2.625 8V20C2.625 20.4973 2.82254 20.9742 3.17417 21.3258C3.52581 21.6775 4.00272 21.875 4.5 21.875H16.5C16.9973 21.875 17.4742 21.6775 17.8258 21.3258C18.1775 20.9742 18.375 20.4973 18.375 20V14C18.375 13.3787 17.8713 12.875 17.25 12.875C16.6287 12.875 16.125 13.3787 16.125 14V19.625H4.875V8.375Z" fill="#9FA5A9"/>
</svg>
