<svg width="24" height="24" viewBox="0 0 24 24" fill="none" xmlns="http://www.w3.org/2000/svg">
<path fill-rule="evenodd" clip-rule="evenodd" d="M7.125 3.75C7.125 3.12868 7.62868 2.625 8.25 2.625H20.25C20.8713 2.625 21.375 3.12868 21.375 3.75V15.75C21.375 16.3713 20.8713 16.875 20.25 16.875H15.75C15.1287 16.875 14.625 16.3713 14.625 15.75C14.625 15.1287 15.1287 14.625 15.75 14.625H19.125V4.875H9.375V8.25C9.375 8.87132 8.87132 9.375 8.25 9.375C7.62868 9.375 7.125 8.87132 7.125 8.25V3.75Z" fill="#9FA5A9"/>
<path fill-rule="evenodd" clip-rule="evenodd" d="M2.625 8.25C2.625 7.62868 3.12868 7.125 3.75 7.125H15.75C16.3713 7.125 16.875 7.62868 16.875 8.25V20.25C16.875 20.8713 16.3713 21.375 15.75 21.375H3.75C3.12868 21.375 2.625 20.8713 2.625 20.25V8.25ZM4.875 9.375V19.125H14.625V9.375H4.875Z" fill="#9FA5A9"/>
</svg>
