<svg width="24" height="24" viewBox="0 0 24 24" fill="none" xmlns="http://www.w3.org/2000/svg">
<path fill-rule="evenodd" clip-rule="evenodd" d="M21.0455 11.2045C21.4848 11.6438 21.4848 12.3562 21.0455 12.7955L17.108 16.733C16.6687 17.1723 15.9563 17.1723 15.517 16.733C15.0777 16.2937 15.0777 15.5813 15.517 15.142L18.659 12L15.517 8.85799C15.0777 8.41866 15.0777 7.70634 15.517 7.267C15.9563 6.82766 16.6687 6.82766 17.108 7.267L21.0455 11.2045Z" fill="#9FA5A9"/>
<path fill-rule="evenodd" clip-rule="evenodd" d="M21.375 12C21.375 12.6213 20.8713 13.125 20.25 13.125L9.75 13.125C9.12868 13.125 8.625 12.6213 8.625 12C8.625 11.3787 9.12868 10.875 9.75 10.875L20.25 10.875C20.8713 10.875 21.375 11.3787 21.375 12Z" fill="#9FA5A9"/>
<path fill-rule="evenodd" clip-rule="evenodd" d="M10.875 3.75C10.875 4.37132 10.3713 4.875 9.75 4.875L4.875 4.875L4.875 19.125L9.75 19.125C10.3713 19.125 10.875 19.6287 10.875 20.25C10.875 20.8713 10.3713 21.375 9.75 21.375L4.5 21.375C4.00272 21.375 3.52581 21.1775 3.17417 20.8258C2.82254 20.4742 2.625 19.9973 2.625 19.5L2.625 4.5C2.625 4.00272 2.82254 3.52581 3.17417 3.17417C3.52581 2.82254 4.00272 2.625 4.5 2.625L9.75 2.625C10.3713 2.625 10.875 3.12868 10.875 3.75Z" fill="#9FA5A9"/>
</svg>
