<svg width="26" height="26" viewBox="0 0 26 26" fill="none" xmlns="http://www.w3.org/2000/svg">
<path d="M13.0001 0C5.82129 0 0 5.96751 0 13.3291C0 19.2183 3.72493 24.2146 8.89027 25.9771C9.53997 26.1005 9.7785 25.6879 9.7785 25.3359C9.7785 25.018 9.76644 23.9681 9.76084 22.8543C6.1442 23.6606 5.38105 21.2816 5.38105 21.2816C4.78968 19.741 3.93762 19.3313 3.93762 19.3313C2.75812 18.504 4.02653 18.521 4.02653 18.521C5.33196 18.615 6.01934 19.8946 6.01934 19.8946C7.17882 21.9323 9.06055 21.3432 9.80239 21.0026C9.91907 20.1411 10.256 19.5531 10.6278 19.2203C7.74026 18.8832 4.70486 17.7403 4.70486 12.633C4.70486 11.1777 5.2127 9.98868 6.04431 9.05523C5.90934 8.71951 5.46436 7.36382 6.17025 5.52783C6.17025 5.52783 7.26192 5.16959 9.74621 6.89412C10.7832 6.59879 11.8953 6.45068 13.0001 6.4456C14.1049 6.45068 15.2179 6.59879 16.2568 6.89412C18.7381 5.16959 19.8282 5.52783 19.8282 5.52783C20.5359 7.36382 20.0907 8.71951 19.9557 9.05523C20.7892 9.98868 21.2936 11.1777 21.2936 12.633C21.2936 17.7524 18.2524 18.8797 15.3576 19.2097C15.8239 19.6233 16.2394 20.4345 16.2394 21.678C16.2394 23.4615 16.2243 24.8969 16.2243 25.3359C16.2243 25.6906 16.4583 26.1062 17.1173 25.9753C22.2798 24.2109 26 19.2163 26 13.3291C26 5.96751 20.1796 0 13.0001 0ZM4.86896 18.9876C4.84033 19.0538 4.73872 19.0737 4.64615 19.0282C4.55186 18.9847 4.4989 18.8945 4.52947 18.828C4.55746 18.7598 4.65928 18.7408 4.75336 18.7865C4.84787 18.83 4.90169 18.9212 4.86896 18.9876ZM5.50842 19.5726C5.44642 19.6316 5.32522 19.6042 5.24299 19.5111C5.15795 19.4181 5.14202 19.2939 5.20488 19.2341C5.26882 19.1751 5.38636 19.2027 5.47161 19.2956C5.55665 19.3897 5.57322 19.513 5.50842 19.5726ZM5.94712 20.3212C5.86747 20.3779 5.73722 20.3247 5.65671 20.2062C5.57706 20.0876 5.57706 19.9455 5.65843 19.8885C5.73916 19.8316 5.86747 19.8828 5.94906 20.0004C6.02849 20.121 6.02849 20.2631 5.94712 20.3212ZM6.68904 21.188C6.61779 21.2686 6.46602 21.247 6.35494 21.1371C6.24127 21.0296 6.20962 20.877 6.2811 20.7965C6.35321 20.7157 6.50584 20.7384 6.61779 20.8475C6.73059 20.9547 6.76504 21.1084 6.68904 21.188ZM7.64791 21.4807C7.61648 21.5851 7.47031 21.6326 7.32306 21.5882C7.17603 21.5425 7.0798 21.4202 7.10951 21.3147C7.14008 21.2097 7.28689 21.1602 7.43522 21.2077C7.58204 21.2531 7.67848 21.3745 7.64791 21.4807ZM8.73914 21.6048C8.7428 21.7148 8.61794 21.8059 8.46337 21.8079C8.30794 21.8114 8.18222 21.7225 8.1805 21.6143C8.1805 21.5033 8.30256 21.413 8.45799 21.4104C8.61256 21.4073 8.73914 21.4956 8.73914 21.6048ZM9.81116 21.5627C9.82967 21.67 9.72225 21.7801 9.56876 21.8095C9.41785 21.8377 9.27813 21.7715 9.25897 21.6651C9.24024 21.5552 9.3496 21.4451 9.5003 21.4166C9.654 21.3892 9.79157 21.4537 9.81116 21.5627Z" fill="black"/>
</svg>
