<svg width="88" height="80" viewBox="0 0 88 80" fill="none" xmlns="http://www.w3.org/2000/svg">
<g clip-path="url(#clip0_155_6026)">
<path d="M82.7221 0.255371L48.984 25.0477L55.1182 10.479L82.7221 0.255371Z" fill="#E17726" stroke="#E17726" stroke-width="0.25" stroke-linecap="round" stroke-linejoin="round"/>
<path d="M5.27795 0.255371L38.5048 25.3033L32.6262 10.479L5.27795 0.255371Z" fill="#E27625" stroke="#E27625" stroke-width="0.25" stroke-linecap="round" stroke-linejoin="round"/>
<path d="M70.7093 58.019L61.7636 71.5654L80.9329 76.9328L86.3003 58.2746L70.7093 58.019Z" fill="#E27625" stroke="#E27625" stroke-width="0.25" stroke-linecap="round" stroke-linejoin="round"/>
<path d="M1.69968 58.2746L7.06709 76.9328L26.2364 71.5654L17.2907 58.019L1.69968 58.2746Z" fill="#E27625" stroke="#E27625" stroke-width="0.25" stroke-linecap="round" stroke-linejoin="round"/>
<path d="M25.2141 34.7606L19.8466 42.6839L38.7604 43.4507L38.2492 23.0034L25.2141 34.7606Z" fill="#E27625" stroke="#E27625" stroke-width="0.25" stroke-linecap="round" stroke-linejoin="round"/>
<path d="M62.7859 34.7606L49.4952 23.0034L48.984 43.7063L67.8978 42.9395L62.7859 34.7606Z" fill="#E27625" stroke="#E27625" stroke-width="0.25" stroke-linecap="round" stroke-linejoin="round"/>
<path d="M26.2364 71.5656L37.738 65.9426L27.77 58.2749L26.2364 71.5656Z" fill="#E27625" stroke="#E27625" stroke-width="0.25" stroke-linecap="round" stroke-linejoin="round"/>
<path d="M50.262 65.9426L61.7636 71.5656L60.23 58.2749L50.262 65.9426Z" fill="#E27625" stroke="#E27625" stroke-width="0.25" stroke-linecap="round" stroke-linejoin="round"/>
<path d="M61.7636 71.5654L50.262 65.9424L51.2843 73.3545V76.4216L61.7636 71.5654Z" fill="#D5BFB2" stroke="#D5BFB2" stroke-width="0.25" stroke-linecap="round" stroke-linejoin="round"/>
<path d="M26.2364 71.5657L36.9712 76.6775V73.6104L37.9936 66.1982L26.2364 71.5657Z" fill="#D5BFB2" stroke="#D5BFB2" stroke-width="0.25" stroke-linecap="round" stroke-linejoin="round"/>
<path d="M36.9712 53.4186L27.5144 50.6071L34.1597 47.54L36.9712 53.4186Z" fill="#233447" stroke="#233447" stroke-width="0.25" stroke-linecap="round" stroke-linejoin="round"/>
<path d="M50.7732 53.4186L53.5847 47.54L60.23 50.6071L50.7732 53.4186Z" fill="#233447" stroke="#233447" stroke-width="0.25" stroke-linecap="round" stroke-linejoin="round"/>
<path d="M26.2364 71.5654L27.77 58.019L17.2907 58.2746L26.2364 71.5654Z" fill="#CC6228" stroke="#CC6228" stroke-width="0.25" stroke-linecap="round" stroke-linejoin="round"/>
<path d="M59.9744 58.019L61.508 71.5654L70.4537 58.2746L59.9744 58.019Z" fill="#CC6228" stroke="#CC6228" stroke-width="0.25" stroke-linecap="round" stroke-linejoin="round"/>
<path d="M68.1534 42.9395L49.2396 43.7062L51.0288 53.4187L53.8403 47.5401L60.4856 50.6072L68.1534 42.9395Z" fill="#CC6228" stroke="#CC6228" stroke-width="0.25" stroke-linecap="round" stroke-linejoin="round"/>
<path d="M27.5144 50.6072L34.1597 47.5401L36.9712 53.4187L38.7604 43.7062L19.8466 42.9395L27.5144 50.6072Z" fill="#CC6228" stroke="#CC6228" stroke-width="0.25" stroke-linecap="round" stroke-linejoin="round"/>
<path d="M19.8466 42.9395L27.77 58.5305L27.5144 50.8628L19.8466 42.9395Z" fill="#E27525" stroke="#E27525" stroke-width="0.25" stroke-linecap="round" stroke-linejoin="round"/>
<path d="M60.4856 50.6069L60.23 58.2746L68.1534 42.6836L60.4856 50.6069Z" fill="#E27525" stroke="#E27525" stroke-width="0.25" stroke-linecap="round" stroke-linejoin="round"/>
<path d="M38.7604 43.7061L36.9712 53.4185L39.2716 64.9201L39.7827 49.8402L38.7604 43.7061Z" fill="#E27525" stroke="#E27525" stroke-width="0.25" stroke-linecap="round" stroke-linejoin="round"/>
<path d="M48.984 43.7061L47.9617 49.8402L48.4728 64.9201L50.7732 53.4185L48.984 43.7061Z" fill="#E27525" stroke="#E27525" stroke-width="0.25" stroke-linecap="round" stroke-linejoin="round"/>
<path d="M50.7732 53.4184L48.4728 64.92L50.0064 65.9424L59.9744 58.2747L60.23 50.6069L50.7732 53.4184Z" fill="#F5841F" stroke="#F5841F" stroke-width="0.25" stroke-linecap="round" stroke-linejoin="round"/>
<path d="M27.5144 50.6069L27.77 58.2747L37.738 65.9424L39.2716 64.92L36.9712 53.4184L27.5144 50.6069Z" fill="#F5841F" stroke="#F5841F" stroke-width="0.25" stroke-linecap="round" stroke-linejoin="round"/>
<path d="M51.0287 76.6773V73.6102L50.262 72.8434H37.4824L36.7157 73.6102V76.6773L26.2364 71.5654L30.0703 74.6325L37.4824 79.7444H50.5176L58.1853 74.6325L61.7636 71.5654L51.0287 76.6773Z" fill="#C0AC9D" stroke="#C0AC9D" stroke-width="0.25" stroke-linecap="round" stroke-linejoin="round"/>
<path d="M50.262 65.9423L48.7284 64.9199H39.2716L37.738 65.9423L36.7157 73.3544L37.4824 72.5876H50.262L51.0288 73.3544L50.262 65.9423Z" fill="#161616" stroke="#161616" stroke-width="0.25" stroke-linecap="round" stroke-linejoin="round"/>
<path d="M84 26.8368L86.8115 13.0349L82.4665 0.255371L50.262 24.2809L62.7859 34.7602L80.4217 39.872L84.2556 35.2713L82.4665 34.249L85.278 31.6931L83.2332 30.1595L86.0447 28.1148L84 26.8368Z" fill="#763E1A" stroke="#763E1A" stroke-width="0.25" stroke-linecap="round" stroke-linejoin="round"/>
<path d="M0.932907 13.0349L3.74441 26.8368L1.95527 28.1148L4.76677 30.1595L2.72204 31.6931L5.53355 34.249L3.74441 35.5269L7.57827 40.1276L25.2141 35.0158L37.738 24.5365L5.27795 0.255371L0.932907 13.0349Z" fill="#763E1A" stroke="#763E1A" stroke-width="0.25" stroke-linecap="round" stroke-linejoin="round"/>
<path d="M80.4217 39.8721L62.7859 34.7603L68.1534 42.6836L60.23 58.2746L70.7093 58.019H86.3003L80.4217 39.8721Z" fill="#F5841F" stroke="#F5841F" stroke-width="0.25" stroke-linecap="round" stroke-linejoin="round"/>
<path d="M25.2141 34.7603L7.57827 39.8721L1.69968 58.019H17.2907L27.77 58.2746L19.8466 42.6836L25.2141 34.7603Z" fill="#F5841F" stroke="#F5841F" stroke-width="0.25" stroke-linecap="round" stroke-linejoin="round"/>
<path d="M48.984 43.7058L50.0064 24.2809L55.1182 10.479H32.3706L37.4824 24.2809L38.5048 43.7058L39.016 49.84V64.9199H48.4728V49.84L48.984 43.7058Z" fill="#F5841F" stroke="#F5841F" stroke-width="0.25" stroke-linecap="round" stroke-linejoin="round"/>
</g>
<defs>
<clipPath id="clip0_155_6026">
<rect width="86.6454" height="80" fill="white" transform="translate(0.677315)"/>
</clipPath>
</defs>
</svg>
