<svg width="750" height="359" viewBox="0 0 750 359" fill="none" xmlns="http://www.w3.org/2000/svg">
<path d="M1198.34 24.6704C1196.7 14.6011 1189.45 5.61788 1176.99 -2.24211C1164.54 -10.1005 1146.94 -16.7939 1124.73 -22.2977C1080.33 -33.3042 1017.62 -39.525 941.13 -40.8693C788.156 -43.5577 580.149 -26.7407 353.375 10.224C126.601 47.1886 -75.9784 97.298 -220.18 148.427C-292.285 173.993 -349.771 199.805 -388.384 224.344C-407.692 236.614 -422.255 248.55 -431.569 259.957C-440.885 271.366 -444.904 282.186 -443.263 292.255C-441.622 302.324 -434.375 311.308 -421.918 319.168C-409.463 327.026 -391.863 333.719 -369.658 339.223C-325.251 350.23 -262.544 356.45 -186.053 357.795C-33.0787 360.483 174.928 343.666 401.702 306.701C628.476 269.737 831.055 219.627 975.257 168.499C1047.36 142.933 1104.85 117.121 1143.46 92.5816C1162.77 80.311 1177.33 68.3751 1186.65 56.9683C1195.96 45.5592 1199.98 34.7397 1198.34 24.6704Z" fill="#070D0C" fill-opacity="0.2" stroke="#152928"/>
<path d="M613.125 213.979C609.734 208.513 600.763 207.753 596.701 208.057C592.992 210.638 586.846 215.801 591.932 215.801C597.019 215.801 602.882 221.267 605.178 224C609.24 222.937 616.516 219.445 613.125 213.979Z" fill="#1FECB3"/>
<path d="M484.41 40.9815C477.946 40.9815 469.712 50.0556 464.137 50.963C461.5 50.963 456.028 42.7766 454 38.2592L474.78 30.9999C479.173 31.9073 485.5 40.9815 484.41 40.9815Z" fill="#1FECB3"/>
<path d="M952.511 64.7413C951.368 57.7274 946.326 51.4474 937.614 45.9354C928.904 40.4249 916.587 35.724 901.033 31.8543C869.929 24.116 826 19.7303 772.405 18.7656C665.223 16.8364 519.482 28.5902 360.591 54.4896C201.701 80.389 59.7718 115.526 -41.2495 151.393C-91.764 169.328 -132.026 187.437 -159.062 204.652C-172.582 213.261 -182.769 221.63 -189.278 229.621C-195.79 237.615 -198.576 245.171 -197.432 252.184C-196.289 259.198 -191.248 265.478 -182.535 270.99C-173.825 276.501 -161.508 281.202 -145.954 285.071C-114.85 292.81 -70.9213 297.195 -17.3261 298.16C89.856 300.089 235.597 288.335 394.487 262.436C553.377 236.537 695.307 201.4 796.328 165.533C846.843 147.598 887.105 129.489 914.141 112.274C927.661 103.665 937.848 95.2958 944.357 87.3045C950.868 79.3109 953.654 71.7552 952.511 64.7413Z" fill="#091312" stroke="url(#paint0_linear_97_3748)"/>
<path d="M719.717 102.687C719.052 98.6074 716.107 94.9263 710.946 91.6748C705.788 88.425 698.48 85.6468 689.23 83.3591C670.735 78.7845 644.598 76.1987 612.693 75.6456C548.892 74.5396 462.124 81.5634 367.518 96.9844C272.912 112.405 188.405 133.3 128.258 154.61C98.1799 165.266 74.2173 176.018 58.1321 186.229C50.0877 191.336 44.0396 196.291 40.1804 201.011C36.3192 205.733 34.6957 210.159 35.3607 214.238C36.0257 218.318 38.9706 221.999 44.1314 225.251C49.2897 228.5 56.5984 231.278 65.8481 233.566C84.3434 238.141 110.48 240.727 142.385 241.28C206.186 242.386 292.954 235.362 387.56 219.941C482.166 204.52 566.673 183.626 626.82 162.316C656.898 151.659 680.861 140.907 696.946 130.696C704.99 125.589 711.038 120.634 714.898 115.914C718.759 111.192 720.382 106.766 719.717 102.687Z" fill="#070D0C" fill-opacity="0.2" stroke="#152928"/>
<path d="M593.077 123.329C592.671 120.84 590.866 118.566 587.636 116.537C584.409 114.511 579.824 112.772 574.003 111.339C562.365 108.474 545.905 106.857 525.798 106.518C485.593 105.842 430.905 110.282 371.27 120.003C311.634 129.723 258.367 142.881 220.458 156.29C201.499 162.995 186.405 169.756 176.279 176.169C171.215 179.377 167.419 182.481 165.002 185.428C162.584 188.376 161.594 191.106 162 193.596C162.406 196.086 164.211 198.36 167.441 200.388C170.668 202.415 175.253 204.153 181.074 205.586C192.713 208.452 209.172 210.069 229.279 210.407C269.484 211.083 324.172 206.644 383.808 196.923C443.443 187.202 496.71 174.045 534.62 160.636C553.578 153.93 568.672 147.169 578.798 140.756C583.863 137.549 587.658 134.444 590.075 131.498C592.493 128.549 593.483 125.819 593.077 123.329Z" fill="#091312" stroke="url(#paint1_linear_97_3748)"/>
<path d="M248.552 142.067C248.551 146.515 238.218 146.216 235.051 146.359C234.551 149.363 237.467 157.661 239.5 158C245.5 159 251.552 151.938 254.052 149.363C253.552 145.643 248.552 140.5 248.552 142.067Z" fill="#FDE800"/>
<path d="M142.051 99.6836C138.063 99.6836 135.551 88.3822 134.551 83.8044C130.051 83.8044 119.925 88.3997 119.5 91.5C119.021 95 128.051 104.404 132.551 107.409C137.218 105.549 143 99.6836 142.051 99.6836Z" fill="#1FECB3"/>
<path d="M215.551 13.5003C214.751 15.9036 204.218 16.5044 199.051 16.5044C199.051 19.5086 200.051 25.7744 204.051 26.8044C208.051 27.8344 216.385 23.8003 220.051 21.6544C218.885 17.935 216.351 11.0969 215.551 13.5003Z" fill="#FDE800"/>
<path d="M326.051 14.7755C322.804 13.1504 323.718 6.90741 324.551 4.04629C322.5 3.49999 316.551 4.99997 316.551 6.19213C316.551 10.6733 318 15.5 319.551 18.2088C323.051 17.7796 326.5 15 326.051 14.7755Z" fill="#EA6997"/>
<path d="M536.552 145.33C530.552 143.27 521.052 146.188 517.052 147.905C513.385 146.045 507.152 141.381 511.552 137.605C515.952 133.828 526.719 132.884 531.552 132.884C535.719 137.891 542.552 147.39 536.552 145.33Z" fill="#EA6997"/>
<path d="M596.552 41.9464C600.303 40.0195 596.218 28.4991 594.052 23.4922C597.552 21.4894 606.603 21.6177 608.052 20.0589C609.5 18.5001 613.552 35.5089 612.052 38.0839C610.552 40.6589 594.5 43.0001 596.552 41.9464Z" fill="#1FECB3"/>
<path d="M644.051 106.896C637.651 108.956 630.051 108.899 627.051 108.613C627.051 111.76 629 119 631.551 120.201C634.101 121.401 643 118.5 648.551 115.909C650.5 110.5 645 106.591 644.051 106.896Z" fill="#FDE800"/>
<path d="M130.265 213.953C133.389 211.716 135.249 208.041 135.355 204.816C138.5 204 143.5 206 142.991 207.234C140.939 212.212 140 215 136.946 216.371C134.453 217.49 129.5 214.5 130.265 213.953Z" fill="#EA6997"/>
<ellipse cx="374" cy="169" rx="31" ry="6" fill="black"/>
<circle cx="375" cy="116" r="50.5" fill="#070D0C" stroke="#305A57" stroke-width="5"/>
<path d="M375 68C348.48 68 327 89.48 327 116C327 142.496 348.48 164 375 164C401.496 164 423 142.496 423 116C423 89.48 401.496 68 375 68ZM367.4 141L343.4 117L350.192 110.208L367.4 127.416L403.808 91.008L410.6 97.8L367.4 141Z" fill="#06DD76"/>
<defs>
<linearGradient id="paint0_linear_97_3748" x1="367" y1="320.5" x2="349" y2="49.5001" gradientUnits="userSpaceOnUse">
<stop stop-color="#11201F"/>
<stop offset="1" stop-color="#1F3C3A"/>
</linearGradient>
<linearGradient id="paint1_linear_97_3748" x1="354" y1="200.5" x2="351" y2="94.5001" gradientUnits="userSpaceOnUse">
<stop stop-color="#1B3534"/>
<stop offset="1" stop-color="#11201F"/>
</linearGradient>
</defs>
</svg>
